<svg width="60" height="60" viewBox="0 0 60 60" fill="none" xmlns="http://www.w3.org/2000/svg">
<ellipse cx="23.7516" cy="24.8849" rx="14.3212" ry="13.0265" fill="white"/>
<ellipse cx="2.74168" cy="2.8311" rx="2.74168" ry="2.8311" transform="matrix(0.995475 0.0950258 -0.0890687 0.996026 15.1425 15.9646)" fill="black"/>
<ellipse cx="29.9128" cy="24.8851" rx="2.94051" ry="2.97345" fill="black"/>
<path fill-rule="evenodd" clip-rule="evenodd" d="M22.6533 8.41622C22.6533 8.41622 16.8166 -0.0165061 14.9848 1.04888C14.6019 1.29624 14.4112 2.72194 14.1313 4.81465C13.6666 8.28912 12.9561 13.6022 10.7113 18.414C10.4871 18.8946 10.2607 19.3782 10.033 19.8647L10.0325 19.8659C9.88363 20.184 9.7324 20.5066 9.57918 20.8335C6.02818 28.4092 1.41002 38.2616 0.591073 45.9116C-1.00441 60.8153 4.75444 72.1433 10.9549 84.3401C11.4796 85.3722 12.0074 86.4105 12.5342 87.4577C13.293 88.9659 15.0575 89.8762 16.7026 89.8762H17.2925C19.4369 89.8762 18.2621 87.0884 17.8871 86.1987L17.8869 86.1982C17.8468 86.1028 17.8158 86.0294 17.7991 85.9835C16.2242 81.6521 15.788 77.9574 15.2804 73.6577C15.1521 72.571 15.0193 71.4456 14.8623 70.2615C15.6014 71.1406 16.3843 71.981 17.2079 72.7788C18.299 77.9285 19.8599 82.9285 21.6916 87.7206C22.1925 89.0311 23.4269 89.8761 24.7907 89.8761L25.4669 89.8761C26.7002 89.8761 27.5789 88.6374 27.2609 87.4063C26.5265 84.5631 26.0013 81.6606 25.6558 78.7101C28.8473 80.2625 32.3373 81.3059 36.0393 81.729C49.3114 83.2457 61.6095 76.3665 67.9692 65.1992C68.1255 64.9366 68.2738 64.668 68.4136 64.3937L68.4452 64.3345C68.478 64.2729 68.5071 64.2128 68.5329 64.1541C69.2366 62.7065 69.7076 61.1074 69.8901 59.403C70.016 58.2269 69.9972 57.0687 69.8485 55.9474C69.4852 53.2092 77.4116 48.388 85.1153 43.7023C94.8996 37.751 104.325 32.0183 95.9501 31.0495C94.7656 30.9125 93.5819 30.7545 92.398 30.5965C84.3507 29.5225 76.2961 28.4476 67.9692 33.947C67.171 35.653 66.3784 37.146 65.5976 38.4526C65.2203 45.1007 59.8826 50.3717 53.3534 50.3717C46.5793 50.3717 41.0879 44.698 41.0879 37.6992C41.0879 35.4508 41.6546 33.3393 42.6484 31.5086C43.9476 28.1833 45.878 24.6379 47.522 21.6187C49.5588 17.878 51.1558 14.9449 50.5678 14.2383C49.323 12.7424 43.829 13.7973 40.381 14.4593L40.381 14.4593C39.744 14.5816 39.1769 14.6905 38.7193 14.7674C36.1102 11.2227 32.1538 8.74673 27.5315 8.21851C25.861 8.02761 24.2215 8.10459 22.6533 8.41622ZM16.1409 24.2294C18.7715 25.4298 21.6846 24.5768 22.6474 22.3242C23.6103 20.0717 22.2582 17.2726 19.6276 16.0723C18.0442 15.3498 16.3585 15.3712 15.0574 15.9939C14.1968 16.4058 13.5044 17.0807 13.121 17.9775C12.1582 20.23 13.5102 23.0291 16.1409 24.2294ZM35.4641 28.4003C34.4446 30.7683 31.3915 31.6645 28.6446 30.4022C25.8978 29.1399 24.4974 26.1969 25.5168 23.829C25.9227 22.8863 26.6508 22.1769 27.5537 21.744C28.9187 21.0896 30.6829 21.0674 32.3363 21.8271C35.0831 23.0895 36.4835 26.0324 35.4641 28.4003Z" fill="#72BDF8"/>
<path fill-rule="evenodd" clip-rule="evenodd" d="M19.999 26.6597L19.9484 27.2947C19.999 26.6597 19.9991 26.6597 19.9992 26.6597L19.9999 26.6597L20.0011 26.6598L20.0042 26.6601L20.0133 26.661L20.0422 26.664C20.0662 26.6666 20.0994 26.6705 20.1408 26.6761C20.2234 26.6874 20.339 26.7055 20.4785 26.7336C20.756 26.7896 21.1359 26.8868 21.5417 27.0528C21.9561 27.2224 22.3389 27.4544 22.6105 27.6367C22.7482 27.7291 22.8618 27.8117 22.9418 27.8719C22.9818 27.902 23.0137 27.9267 23.0361 27.9444L23.0627 27.9654L23.0705 27.9717L23.0729 27.9737L23.0738 27.9744L23.0743 27.9748C23.0744 27.9748 23.0744 27.9749 22.715 28.4453L23.0744 27.9749C23.3418 28.1929 23.3874 28.5936 23.1763 28.8698C22.9654 29.1458 22.578 29.1931 22.3106 28.9755L22.3103 28.9752L22.3102 28.9751L22.3068 28.9724L22.2894 28.9586C22.2732 28.9459 22.2483 28.9265 22.2156 28.902C22.1503 28.8528 22.055 28.7834 21.9387 28.7054C21.8606 28.653 21.7748 28.5979 21.684 28.5431C21.4137 29.1206 21.391 29.5302 21.4466 29.7917C21.5071 30.0757 21.676 30.2674 21.898 30.3771C22.1319 30.4926 22.4115 30.5083 22.6414 30.4275C22.8568 30.3517 23.0203 30.1973 23.0911 29.9464C23.1864 29.6086 23.5288 29.4146 23.8558 29.5131C24.1828 29.6116 24.3705 29.9654 24.2751 30.3032C24.0803 30.9933 23.5945 31.4383 23.0389 31.6338C22.4978 31.8242 21.8846 31.783 21.3659 31.5267C20.8866 31.2899 20.4783 30.863 20.2935 30.2635C19.9383 30.4494 19.561 30.5094 19.1981 30.4631C18.6834 30.3976 18.2285 30.1233 17.9152 29.7597C17.6051 29.3999 17.3867 28.8929 17.4625 28.3462C17.5108 27.9979 17.8233 27.7559 18.1604 27.8058C18.4976 27.8558 18.7317 28.1786 18.6834 28.5269C18.6719 28.6099 18.7009 28.755 18.8365 28.9124C18.9689 29.066 19.1579 29.174 19.349 29.1984C19.5227 29.2205 19.7275 29.1788 19.9416 28.9774C20.1172 28.8121 20.3148 28.5226 20.4812 28.0389C20.3949 28.0169 20.3145 27.9989 20.2422 27.9844C20.1305 27.9618 20.0402 27.9478 19.9796 27.9395C19.9493 27.9354 19.9267 27.9328 19.9127 27.9312L19.8983 27.9298L19.8964 27.9296C19.5576 27.9 19.3059 27.5926 19.3338 27.2424C19.3617 26.8917 19.6595 26.6308 19.999 26.6597Z" fill="black"/>
</svg>
